<svg width="24" height="24" viewbox="0 0 24 24" fill="none" xmlns="http://www.w3.org/2000/svg">
						<g clip-path="url(#clip0_9_1306)">
							<path fill-rule="evenodd" clip-rule="evenodd" d="M20.2445 1.49315C19.6478 1.49315 19.0755 1.7302 18.6535 2.15216C18.2316 2.57411 17.9945 3.14641 17.9945 3.74315C17.9945 4.33988 18.2316 4.91218 18.6535 5.33414C19.0755 5.75609 19.6478 5.99315 20.2445 5.99315C20.8413 5.99315 21.4136 5.75609 21.8355 5.33414C22.2575 4.91218 22.4945 4.33988 22.4945 3.74315C22.4945 3.14641 22.2575 2.57411 21.8355 2.15216C21.4136 1.7302 20.8413 1.49315 20.2445 1.49315ZM16.4945 3.74315C16.4944 2.8633 16.8037 2.01142 17.3682 1.33656C17.9328 0.661706 18.7166 0.206842 19.5827 0.0515525C20.4487 -0.103737 21.3418 0.0504369 22.1056 0.4871C22.8695 0.923764 23.4555 1.61511 23.7611 2.44018C24.0667 3.26526 24.0724 4.17152 23.7773 5.00041C23.4822 5.82929 22.9051 6.52803 22.1468 6.97436C21.3886 7.42069 20.4976 7.5862 19.6296 7.44192C18.7617 7.29765 17.9721 6.85278 17.399 6.18515L7.32204 10.8651C7.5537 11.5993 7.5537 12.387 7.32204 13.1211L17.399 17.8011C18.0048 17.0966 18.8505 16.6421 19.7723 16.5256C20.6941 16.4091 21.6263 16.639 22.3883 17.1707C23.1503 17.7024 23.6877 18.498 23.8965 19.4033C24.1053 20.3087 23.9706 21.2593 23.5184 22.071C23.0663 22.8827 22.3289 23.4976 21.4492 23.7966C20.5695 24.0956 19.6101 24.0573 18.757 23.6893C17.9038 23.3212 17.2177 22.6495 16.8316 21.8045C16.4455 20.9594 16.3868 20.001 16.667 19.1151L6.59004 14.4351C6.09119 15.0165 5.42626 15.4311 4.68471 15.6233C3.94315 15.8154 3.16054 15.7758 2.44215 15.5099C1.72376 15.2439 1.10405 14.7643 0.666399 14.1356C0.228747 13.5069 -0.00585938 12.7592 -0.00585938 11.9931C-0.00585938 11.2271 0.228747 10.4794 0.666399 9.85072C1.10405 9.222 1.72376 8.7424 2.44215 8.47643C3.16054 8.21046 3.94315 8.17088 4.68471 8.36302C5.42626 8.55516 6.09119 8.96979 6.59004 9.55115L16.667 4.87115C16.5523 4.50615 16.4942 4.12575 16.4945 3.74315ZM3.74454 9.74315C3.1478 9.74315 2.57551 9.9802 2.15355 10.4022C1.73159 10.8241 1.49454 11.3964 1.49454 11.9931C1.49454 12.5899 1.73159 13.1622 2.15355 13.5841C2.57551 14.0061 3.1478 14.2431 3.74454 14.2431C4.34128 14.2431 4.91357 14.0061 5.33553 13.5841C5.75749 13.1622 5.99454 12.5899 5.99454 11.9931C5.99454 11.3964 5.75749 10.8241 5.33553 10.4022C4.91357 9.9802 4.34128 9.74315 3.74454 9.74315ZM20.2445 17.9931C19.6478 17.9931 19.0755 18.2302 18.6535 18.6522C18.2316 19.0741 17.9945 19.6464 17.9945 20.2431C17.9945 20.8399 18.2316 21.4122 18.6535 21.8341C19.0755 22.2561 19.6478 22.4931 20.2445 22.4931C20.8413 22.4931 21.4136 22.2561 21.8355 21.8341C22.2575 21.4122 22.4945 20.8399 22.4945 20.2431C22.4945 19.6464 22.2575 19.0741 21.8355 18.6522C21.4136 18.2302 20.8413 17.9931 20.2445 17.9931Z" fill="white"/>
						</g>
					</svg>