<svg width="24" height="24" viewbox="0 0 24 24" fill="none" xmlns="http://www.w3.org/2000/svg">
								<g clip-path="url(#clip0_186_402)">
									<path d="M20.2009 18.555C19.1359 16.839 16.7914 15 11.9989 15C7.20644 15 4.86344 16.8375 3.79694 18.555C4.77956 19.7869 6.02731 20.7813 7.44735 21.4643C8.8674 22.1473 10.4232 22.5013 11.9989 22.5C13.5747 22.5013 15.1305 22.1473 16.5505 21.4643C17.9706 20.7813 19.2183 19.7869 20.2009 18.555Z" fill="white"/>
									<path fill-rule="evenodd" clip-rule="evenodd" d="M12 13.5C13.1935 13.5 14.3381 13.0259 15.182 12.182C16.0259 11.3381 16.5 10.1935 16.5 9C16.5 7.80653 16.0259 6.66193 15.182 5.81802C14.3381 4.97411 13.1935 4.5 12 4.5C10.8065 4.5 9.66193 4.97411 8.81802 5.81802C7.97411 6.66193 7.5 7.80653 7.5 9C7.5 10.1935 7.97411 11.3381 8.81802 12.182C9.66193 13.0259 10.8065 13.5 12 13.5Z" fill="white"/>
									<path fill-rule="evenodd" clip-rule="evenodd" d="M12 1.5C9.21523 1.5 6.54451 2.60625 4.57538 4.57538C2.60625 6.54451 1.5 9.21523 1.5 12C1.5 14.7848 2.60625 17.4555 4.57538 19.4246C6.54451 21.3938 9.21523 22.5 12 22.5C14.7848 22.5 17.4555 21.3938 19.4246 19.4246C21.3938 17.4555 22.5 14.7848 22.5 12C22.5 9.21523 21.3938 6.54451 19.4246 4.57538C17.4555 2.60625 14.7848 1.5 12 1.5ZM0 12C0 8.8174 1.26428 5.76516 3.51472 3.51472C5.76516 1.26428 8.8174 0 12 0C15.1826 0 18.2348 1.26428 20.4853 3.51472C22.7357 5.76516 24 8.8174 24 12C24 15.1826 22.7357 18.2348 20.4853 20.4853C18.2348 22.7357 15.1826 24 12 24C8.8174 24 5.76516 22.7357 3.51472 20.4853C1.26428 18.2348 0 15.1826 0 12Z" fill="white"/>
								</g>
								<defs>
									<clipPath id="clip0_186_402">
										<rect width="24" height="24" fill="white"/>
									</clipPath>
								</defs>
							</svg>